<svg width="123" height="160" viewBox="0 0 123 160" xmlns="http://www.w3.org/2000/svg"><defs><linearGradient x1="15.619%" y1="98.76%" x2="84.381%" y2="37.498%" id="a"><stop stop-color="#C1C7D0" offset="0%"/><stop stop-color="#C4CAD2" stop-opacity=".97" offset="24%"/><stop stop-color="#CDD1D9" stop-opacity=".89" offset="50%"/><stop stop-color="#DCDEE4" stop-opacity=".75" offset="78%"/><stop stop-color="#EBECF0" stop-opacity=".6" offset="100%"/></linearGradient></defs><g fill="none" fill-rule="evenodd"><path d="M71.195 56.457l49.907 86.443a11.395 11.395 0 01-9.87 17.097H11.418a11.395 11.395 0 01-9.87-17.097l49.906-86.443a11.395 11.395 0 0119.74 0zm-5.679 62.76l2.163-33.315a6.896 6.896 0 00-6.88-7.346 6.895 6.895 0 00-6.88 7.346l2.162 33.314a4.732 4.732 0 004.718 4.425 4.732 4.732 0 004.717-4.425zm-11.898 17.682a7.159 7.159 0 007.804 7.196 7.271 7.271 0 00-.676-14.513 7.241 7.241 0 00-7.128 7.317z" fill="url(#a)" fill-rule="nonzero"/><g opacity=".6" fill="#C1C7D0" fill-rule="nonzero"><path d="M69.632 21.16L64.066 1.09a.458.458 0 00-.894.037l-3.5 18.854-4.357-.811a.458.458 0 00-.525.57l5.566 20.071a.458.458 0 00.893 0l3.5-18.854 4.358.774a.458.458 0 00.525-.57zM49.667 32.157l-8.173-6.422a.203.203 0 00-.308.248l4.154 8.57-1.998.984a.203.203 0 000 .338l8.165 6.423a.203.203 0 00.308-.248l-4.184-8.586 1.998-.969a.203.203 0 00.038-.338z"/></g><path d="M87.247 28.244c-.879 1.194-8.263-4.207-9.134-3.005-.871 1.202 6.505 6.603 5.634 7.804-.872 1.202-8.263-4.206-9.142-3.004-.879 1.202 6.505 6.603 5.626 7.804-.879 1.202-8.262-4.206-9.141-3.004-.88 1.202 6.505 6.602 5.626 7.804M90.83 48.968c-1.097 1-5.296-3.59-6.392-2.584-1.097 1.007 3.102 5.596 2.005 6.595-1.096 1-5.295-3.59-6.392-2.584-.51.466.12 1.705.834 3.005M34.403 48.825c1.367.579 3.756-5.16 5.153-4.582 1.397.579-1.044 6.31.323 6.888 1.367.579 3.756-5.16 5.153-4.582.638.27.458 1.645.218 3.103" opacity=".6" stroke="#B3BAC5" stroke-linecap="round" stroke-width="2"/></g></svg>