<svg width="174" height="160" viewBox="0 0 174 160" xmlns="http://www.w3.org/2000/svg"><defs><linearGradient x1="14.544%" y1="85.365%" x2="84.938%" y2="14.651%" id="a"><stop stop-color="#C1C7D0" offset="56%"/><stop stop-color="#E9EBEF" stop-opacity=".5" offset="97%"/></linearGradient></defs><g fill-rule="nonzero" fill="none"><path d="M88.193 159.85c-.782 0-1.561.016-2.338.05a1.969 1.969 0 11-.083-3.938h.058a73.65 73.65 0 0014.861-1.591 1.972 1.972 0 01.838 3.853 77.579 77.579 0 01-13.336 1.625zm-12.993-.688c-.114.01-.23.01-.343 0a76.398 76.398 0 01-15.305-3.761 1.971 1.971 0 011.332-3.71 72.444 72.444 0 0014.509 3.576 1.969 1.969 0 01-.201 3.92l.008-.025zm36.28-3.912a1.969 1.969 0 01-.753-3.82 72.653 72.653 0 0013.403-6.592 1.976 1.976 0 112.094 3.35 76.683 76.683 0 01-14.132 6.953 1.985 1.985 0 01-.611.134v-.025zm-61.017-4.096a1.96 1.96 0 01-.989-.226 77.194 77.194 0 01-13.076-8.78 1.97 1.97 0 012.513-3.032 73.198 73.198 0 0012.415 8.319 1.969 1.969 0 01-.838 3.71l-.025.009zM29.98 135.196a1.969 1.969 0 01-1.533-.645 77.068 77.068 0 01-9.307-12.708 1.971 1.971 0 013.401-1.994 73.148 73.148 0 008.83 12.055 1.969 1.969 0 01-1.39 3.292zm120.553-13.018a1.969 1.969 0 01-1.776-2.949 72.695 72.695 0 006.048-13.68 1.972 1.972 0 013.753 1.215 76.607 76.607 0 01-6.383 14.4 1.969 1.969 0 01-1.642 1.014zm-134.366-8.98a1.969 1.969 0 01-1.927-1.232 76.515 76.515 0 01-4.356-15.128 1.97 1.97 0 113.878-.704 72.612 72.612 0 004.189 14.35 1.969 1.969 0 01-1.76 2.714h-.024zm143.153-15.48a1.969 1.969 0 01-2.01-2.304 73.399 73.399 0 001.014-14.911v-.168a1.97 1.97 0 113.937-.142v.167a77.345 77.345 0 01-1.047 15.715 1.969 1.969 0 01-1.894 1.634v.008zM10.74 87.74a1.935 1.935 0 01-2.035-1.86v-.083a77.353 77.353 0 011.03-15.632 1.971 1.971 0 113.887.662 73.45 73.45 0 00-.98 14.827 2.002 2.002 0 01-1.902 2.086zm148.423-16.176a1.969 1.969 0 01-2.002-1.616 72.544 72.544 0 00-4.188-14.342 1.984 1.984 0 013.677-1.49 76.524 76.524 0 014.398 15.128 1.969 1.969 0 01-1.583 2.295l-.302.025zM14.3 61.99a1.969 1.969 0 01-1.943-2.514 76.64 76.64 0 016.367-14.408 1.972 1.972 0 013.426 1.952 72.695 72.695 0 00-6.04 13.671 1.969 1.969 0 01-1.81 1.299zm135.833-14.777a1.969 1.969 0 01-1.768-.972 73.114 73.114 0 00-8.846-12.046 1.969 1.969 0 112.89-2.647 77.068 77.068 0 019.324 12.69 1.969 1.969 0 01-1.625 2.966l.025.009zM26.48 39.07a1.969 1.969 0 01-1.626-3.183 77.428 77.428 0 0110.89-11.368 1.969 1.969 0 112.514 3 73.516 73.516 0 00-10.296 10.789c-.357.461-.9.74-1.482.762zm106.814-11.652a1.96 1.96 0 01-1.323-.453 73.282 73.282 0 00-12.423-8.318 1.971 1.971 0 111.843-3.485 77.252 77.252 0 0113.084 8.763 1.969 1.969 0 01-1.19 3.484l.01.009zm-87.539-5.78a1.969 1.969 0 01-1.123-3.636 76.64 76.64 0 0114.132-6.97 1.97 1.97 0 111.366 3.695 72.687 72.687 0 00-13.403 6.61 1.96 1.96 0 01-.972.3zm64.955-7.096a1.969 1.969 0 01-.729-.117 72.603 72.603 0 00-14.484-3.535 1.97 1.97 0 01.537-3.904 76.49 76.49 0 0115.304 3.737 1.969 1.969 0 01-.595 3.828l-.033-.009zm-40.88-2.68a1.969 1.969 0 01-.477-3.896 78.073 78.073 0 0115.656-1.675 1.969 1.969 0 11.084 3.937h-.058c-4.996.03-9.975.57-14.861 1.609a1.985 1.985 0 01-.344.025z" opacity=".3" fill="#B3BAC5"/><path d="M159.832 29.479a.436.436 0 01-.326-.47c0-.128.017-.254.05-.377.04-.259.093-.516.16-.77a6.375 6.375 0 011.373-2.589 7.313 7.313 0 012.848-1.893l2.078-.838a3.56 3.56 0 002.303-2.437c.108-.413.142-.84.1-1.265a2.932 2.932 0 00-.393-1.223 3.418 3.418 0 00-.946-1.022 4.448 4.448 0 00-1.517-.687 3.644 3.644 0 00-1.75-.076c-.5.11-.97.32-1.383.62a3.82 3.82 0 00-1.005 1.14 5.487 5.487 0 00-.611 1.44c-.04.157-.073.302-.101.436a.67.67 0 01-.838.511l-3.225-1.005a.662.662 0 01-.477-.695c0-.101.014-.202.042-.302.05-.285.109-.564.176-.838.255-.968.69-1.88 1.281-2.689a7.43 7.43 0 012.237-2.035 8.142 8.142 0 013.032-1.04 9.357 9.357 0 013.728.286 10.53 10.53 0 013.518 1.583 8.662 8.662 0 012.245 2.304 6.702 6.702 0 011.022 2.722 7.12 7.12 0 01-.159 2.815 6.986 6.986 0 01-1.943 3.443 9.969 9.969 0 01-3.31 2.002l-1.75.662a4.289 4.289 0 00-1.843 1.156 4.8 4.8 0 00-.972 1.667.436.436 0 01-.527.276l-3.117-.812zm-2.563 4.917a2.907 2.907 0 011.366-1.818 2.815 2.815 0 012.245-.318 2.99 2.99 0 012.127 3.644 2.815 2.815 0 01-1.382 1.792c-.68.4-1.493.506-2.253.294a2.932 2.932 0 01-2.103-3.603v.009zM15.506 18.697a.436.436 0 01-.293-.485c0-.129.025-.255.075-.377.06-.255.133-.507.218-.754a6.375 6.375 0 011.55-2.513 7.313 7.313 0 012.973-1.676l2.128-.704a3.56 3.56 0 002.463-2.286c.135-.405.197-.83.184-1.257a2.932 2.932 0 00-.31-1.248 3.418 3.418 0 00-.837-1.08 4.448 4.448 0 00-1.466-.788 3.694 3.694 0 00-3.217.335 3.82 3.82 0 00-1.08 1.055 5.487 5.487 0 00-.83 1.827.67.67 0 01-.896.469l-3.125-1.207a.662.662 0 01-.427-.728c0-.1.022-.201.067-.302.067-.28.145-.558.234-.838.322-.95.82-1.83 1.466-2.597a7.43 7.43 0 012.37-1.868 8.142 8.142 0 013.092-.837 9.357 9.357 0 013.694.536 10.53 10.53 0 013.41 1.818 8.662 8.662 0 012.086 2.454c.479.855.765 1.804.837 2.781a7.12 7.12 0 01-.352 2.798 6.986 6.986 0 01-2.178 3.3 9.969 9.969 0 01-3.434 1.777l-1.793.536a4.289 4.289 0 00-1.918 1.03 4.607 4.607 0 00-.612.729 4.8 4.8 0 00-.469.838.436.436 0 01-.544.242l-3.066-.98zm-2.89 4.758a2.907 2.907 0 011.482-1.725 2.815 2.815 0 012.262-.168 2.99 2.99 0 011.877 3.778 2.815 2.815 0 01-1.5 1.676 2.907 2.907 0 01-2.27.142 2.932 2.932 0 01-1.851-3.703zM10.38 151.941a.436.436 0 01-.537-.192l-.176-.344a7.816 7.816 0 01-.31-.72 6.375 6.375 0 01-.36-2.907 7.313 7.313 0 011.248-3.192l1.215-1.884a3.56 3.56 0 00.477-3.351 3.627 3.627 0 00-.645-1.098 2.932 2.932 0 00-1.022-.779c-.43-.19-.895-.29-1.365-.293a4.448 4.448 0 00-1.676.31 3.644 3.644 0 00-1.482.947c-.331.392-.576.848-.72 1.34a3.82 3.82 0 00-.185 1.5c.035.523.145 1.04.327 1.532a6.2 6.2 0 00.167.41.67.67 0 01-.402.914l-3.183 1.039a.662.662 0 01-.788-.302l-.125-.276a9.089 9.089 0 01-.327-.77 8.008 8.008 0 01-.511-2.95 7.43 7.43 0 01.662-2.948 8.142 8.142 0 011.851-2.589 9.357 9.357 0 013.217-1.901 10.53 10.53 0 013.786-.73 8.662 8.662 0 013.167.596c.912.375 1.73.947 2.396 1.675a7.12 7.12 0 011.516 2.404 6.986 6.986 0 01.385 3.937 9.969 9.969 0 01-1.558 3.544l-1.056 1.55a4.289 4.289 0 00-.837 2.002 4.607 4.607 0 000 .946c.028.327.09.65.184.964a.436.436 0 01-.31.46l-3.024 1.156zm.72 5.504a2.907 2.907 0 01.075-2.279 2.815 2.815 0 011.675-1.55 2.99 2.99 0 013.837 1.768 2.815 2.815 0 01-.1 2.262 2.907 2.907 0 01-1.676 1.533 2.932 2.932 0 01-3.786-1.742l-.026.008z" opacity=".3" fill="#C1C7D0"/><path d="M125.118 112.746l-5.99-5.806-8.066 8.377 5.99 5.806a11.259 11.259 0 013.107 5.436 11.259 11.259 0 003.108 5.437l24.293 23.54a9.282 9.282 0 0013.127-.21 9.282 9.282 0 00-.21-13.127l-24.293-23.54a11.259 11.259 0 00-5.537-2.931 11.259 11.259 0 01-5.529-2.982z" fill="#CFD4DB"/><path d="M130.413 115.602a11.259 11.259 0 01-5.286-2.873l-1.826-1.768a5.815 5.815 0 10-8.067 8.377l1.826 1.768a11.259 11.259 0 013.04 5.185 48.963 48.963 0 0010.313-10.689z" fill="#DFE1E5" style="mix-blend-mode:multiply"/><path d="M85.445 131.518c-26.624.192-48.43-21.109-48.861-47.73-.433-26.622 20.67-48.619 47.286-49.292a48.201 48.201 0 0134.53 13.655 48.52 48.52 0 01-32.955 83.367zm-1.424-85.445c-17.622.286-32.588 12.98-35.745 30.32-3.158 17.338 6.372 34.493 22.762 40.973 16.39 6.48 35.075.48 44.627-14.331 9.553-14.811 7.314-34.307-5.349-46.566a36.7 36.7 0 00-26.295-10.396z" fill="url(#a)"/><path d="M99.619 72.226l-4.473-4.373a1.675 1.675 0 00-2.371 0l-8.168 8.377-8.377-8.226a1.675 1.675 0 00-2.37 0l-4.398 4.473a1.675 1.675 0 000 2.371l8.377 8.201-8.201 8.377a1.675 1.675 0 000 2.37l4.473 4.399a1.675 1.675 0 002.37 0l8.202-8.377 8.377 8.2a1.675 1.675 0 002.37 0l4.398-4.472a1.675 1.675 0 000-2.371l-8.377-8.201 8.201-8.377a1.675 1.675 0 00-.033-2.37z" fill="#C1C7D0"/></g></svg>