<svg id="Logos" xmlns="http://www.w3.org/2000/svg" xmlns:xlink="http://www.w3.org/1999/xlink" viewBox="0 0 1050 150"><defs><style>.cls-1{fill:#fff;}.cls-2{fill:url(#linear-gradient);}</style><linearGradient id="linear-gradient" x1="22.78" y1="95.55" x2="31.61" y2="121.68" gradientTransform="translate(19.98 -29.06) rotate(0.35)" gradientUnits="userSpaceOnUse"><stop offset="0" stop-color="#fff" stop-opacity="0.6"/><stop offset="1" stop-color="#fff"/></linearGradient></defs><path class="cls-1" d="M109.87,42.64h7.92V82.85c0,10.65-4.67,18-15.58,18a28.17,28.17,0,0,1-9.5-1.5V91.65a22.18,22.18,0,0,0,8.18,1.5c6.69,0,9-4.05,9-9.77Z"/><path class="cls-1" d="M132.22,39.56a4.94,4.94,0,0,1,5.28,5.28,5.28,5.28,0,0,1-10.56,0A4.94,4.94,0,0,1,132.22,39.56Zm-3.87,16.89h7.57v44h-7.57Z"/><path class="cls-1" d="M154.75,100.45h-7.39v-44h7.39V64.2c2.55-5.19,6.95-8.89,15.57-8.36v7.39c-9.68-1-15.57,1.94-15.57,11.26Z"/><path class="cls-1" d="M205.79,92.53c-2.82,5.81-8.1,8.8-14.87,8.8-11.71,0-17.6-9.94-17.6-22.88,0-12.4,6.16-22.88,18.48-22.88,6.42,0,11.35,2.91,14,8.63V56.45h7.57v44h-7.57Zm-12.85,1.76c6.78,0,12.85-4.31,12.85-14.08V76.69c0-9.76-5.55-14.08-12-14.08-8.54,0-12.94,5.64-12.94,15.84C180.88,89,185.11,94.29,192.94,94.29Z"/><path class="cls-1" d="M258.15,101.33c-11.18,0-16.37-2.2-20.86-4.48v-8.1c5.37,2.82,13.64,4.84,21.3,4.84,8.71,0,12-3.43,12-8.54s-3.16-7.83-14.16-10.47c-13-3.17-18.84-7.65-18.84-17.16,0-9,6.87-15.66,20.33-15.66,8.36,0,13.73,2,17.69,4.22V53.9a35.58,35.58,0,0,0-18-4.4c-7.57,0-12.06,2.64-12.06,7.92,0,4.75,3.7,7.13,13.91,9.68,12.23,3.08,19.09,7,19.09,17.43C278.47,94.56,272.49,101.33,258.15,101.33Z"/><path class="cls-1" d="M308.83,101.33c-16.45,0-23.67-9.5-23.67-23,0-13.29,7.39-22.8,20.77-22.8,13.55,0,19,9.42,19,22.8V81.8H292.82c1.05,7.48,5.89,12.32,16.28,12.32a38.92,38.92,0,0,0,13.37-2.38v7C318.87,100.63,313.32,101.33,308.83,101.33Zm-16.1-26h24.55c-.44-8.19-4.13-12.85-11.7-12.85C297.57,62.44,293.52,67.63,292.73,75.29Z"/><path class="cls-1" d="M341.3,100.45h-7.39v-44h7.39V64.2c2.56-5.19,7-8.89,15.58-8.36v7.39c-9.68-1-15.58,1.94-15.58,11.26Z"/><path class="cls-1" d="M375.54,100.45l-17.08-44h7.92L380.64,94l14.17-37.58h7.92l-17.07,44Z"/><path class="cls-1" d="M413.11,39.56a4.94,4.94,0,0,1,5.28,5.28,5.28,5.28,0,1,1-10.56,0A4.94,4.94,0,0,1,413.11,39.56Zm-3.87,16.89h7.57v44h-7.57Z"/><path class="cls-1" d="M459.31,99.31c-2.64,1.41-6.69,2-10.74,2-15.66,0-23-9.5-23-23,0-13.29,7.3-22.8,23-22.8a23.24,23.24,0,0,1,10.48,2.12v7a22.2,22.2,0,0,0-9.95-2.12c-11.44,0-16.1,7.22-16.1,15.76s4.75,15.75,16.28,15.75a27.72,27.72,0,0,0,10-1.59Z"/><path class="cls-1" d="M489,101.33c-16.45,0-23.67-9.5-23.67-23,0-13.29,7.4-22.8,20.77-22.8,13.55,0,19,9.42,19,22.8V81.8H473c1.06,7.48,5.9,12.32,16.28,12.32a38.92,38.92,0,0,0,13.37-2.38v7C499,100.63,493.45,101.33,489,101.33Zm-16.1-26h24.55c-.44-8.19-4.13-12.85-11.7-12.85C477.7,62.44,473.65,67.63,472.86,75.29Z"/><path class="cls-1" d="M539.48,47.39v53.06h-7.92V42.64h13.72l13.11,33.17,5.37,15.93,5.37-15.93,13.2-33.17h12.76v57.81h-7.92V48l-6.78,20.85-12.76,31.59H560L547.4,68.86Z"/><path class="cls-1" d="M635.83,92.53c-2.81,5.81-8.09,8.8-14.87,8.8-11.7,0-17.6-9.94-17.6-22.88,0-12.4,6.16-22.88,18.48-22.88,6.43,0,11.36,2.91,14,8.63V56.45h7.57v44h-7.57ZM623,94.29c6.77,0,12.84-4.31,12.84-14.08V76.69c0-9.76-5.54-14.08-12-14.08-8.54,0-12.94,5.64-12.94,15.84C610.93,89,615.16,94.29,623,94.29Z"/><path class="cls-1" d="M692.24,100.45h-7.57V73.88c0-7.92-3.16-11.44-10.38-11.44-7,0-11.88,4.66-11.88,13.55v24.46h-7.57v-44h7.57v7.22a15.44,15.44,0,0,1,13.9-8.1c10.12,0,15.93,7,15.93,19.1Z"/><path class="cls-1" d="M732.63,92.53c-2.81,5.81-8.09,8.8-14.87,8.8-11.7,0-17.6-9.94-17.6-22.88,0-12.4,6.16-22.88,18.48-22.88,6.43,0,11.35,2.91,14,8.63V56.45h7.57v44h-7.57Zm-12.84,1.76c6.77,0,12.84-4.31,12.84-14.08V76.69c0-9.76-5.54-14.08-12-14.08-8.54,0-12.94,5.64-12.94,15.84C707.73,89,712,94.29,719.79,94.29Z"/><path class="cls-1" d="M781.3,92.53c-2.82,5.81-8.1,8.8-14.87,8.8-11.62,0-17.43-9.94-17.43-22.88,0-12.4,6.07-22.88,18.31-22.88,6.42,0,11.35,2.91,14,8.63V56.45h7.39v40c0,12.94-6.07,21.65-21.82,21.65a44.29,44.29,0,0,1-15.67-2.38v-7.39A48.46,48.46,0,0,0,766.51,111c11,0,14.79-5.89,14.79-14.08Zm-12.85,1.76c6.78,0,12.85-4.31,12.85-14.08V76.69c0-9.76-5.55-14.08-12-14.08-8.54,0-12.94,5.64-12.94,15.84C756.39,89,760.62,94.29,768.45,94.29Z"/><path class="cls-1" d="M821.16,101.33c-16.45,0-23.67-9.5-23.67-23,0-13.29,7.39-22.8,20.77-22.8,13.55,0,19,9.42,19,22.8V81.8H805.15c1.05,7.48,5.89,12.32,16.28,12.32a38.92,38.92,0,0,0,13.37-2.38v7C831.19,100.63,825.65,101.33,821.16,101.33Zm-16.1-26h24.55c-.44-8.19-4.14-12.85-11.7-12.85C809.9,62.44,805.85,67.63,805.06,75.29Z"/><path class="cls-1" d="M883.64,100.45h-7.57V73.88c0-7.92-3.17-11.44-10.38-11.44-7,0-11.88,4.66-11.88,13.55v24.46h-7.57v-44h7.57v7.22a15.43,15.43,0,0,1,13.9-8.1c7.48,0,12.59,3.79,14.79,10.74,2.46-6.78,8.36-10.74,15.66-10.74,9.86,0,15.31,6.69,15.31,19.1v25.78H905.9V76c0-9.06-3.16-13.55-10.38-13.55-7,0-11.88,4.66-11.88,13.55Z"/><path class="cls-1" d="M945.06,101.33c-16.45,0-23.67-9.5-23.67-23,0-13.29,7.39-22.8,20.77-22.8,13.55,0,19,9.42,19,22.8V81.8H929.05c1.05,7.48,5.89,12.32,16.28,12.32a38.92,38.92,0,0,0,13.37-2.38v7C955.09,100.63,949.55,101.33,945.06,101.33Zm-16.1-26h24.55c-.44-8.19-4.14-12.85-11.7-12.85C933.8,62.44,929.75,67.63,929,75.29Z"/><path class="cls-1" d="M1007.54,100.45H1000V73.88c0-7.92-3.16-11.44-10.38-11.44-7,0-11.88,4.66-11.88,13.55v24.46h-7.57v-44h7.57v7.22a15.44,15.44,0,0,1,13.9-8.1c10.12,0,15.93,7,15.93,19.1Z"/><path class="cls-1" d="M1035.53,93.33a24.26,24.26,0,0,0,4.75-.62V100a17.88,17.88,0,0,1-5.11.71c-9.41,0-14-5.55-14-13.73V63.49h-7.13v-7h7.13V47.13h7.39v9.32h11.71v7h-11.71V86.81C1028.57,90.69,1030.86,93.33,1035.53,93.33Z"/><path class="cls-2" d="M43,63.57l20.61.13a3.22,3.22,0,0,1,2.55,5.15L35.74,109.41a21.62,21.62,0,0,1-4.38-30.25Z"/><path class="cls-1" d="M31.35,79.16,10.86,79A3.21,3.21,0,0,1,8.3,73.9L38.43,33.65A21.62,21.62,0,0,1,42.8,63.91Z"/></svg>