<svg width="16" height="16" viewBox="0 0 16 16" fill="none" xmlns="http://www.w3.org/2000/svg">
<path d="M4.00016 13.3337C3.80016 13.3337 3.60016 13.267 3.46683 13.1337L1.5335 11.2003C1.26683 10.9337 1.26683 10.467 1.5335 10.2003C1.80016 9.93366 2.20016 9.93366 2.46683 10.2003L3.3335 11.067V3.26699C3.3335 2.93366 3.60016 2.66699 4.00016 2.66699C4.40016 2.66699 4.66683 2.93366 4.66683 3.26699V11.067L5.5335 10.2003C5.80016 9.93366 6.20016 9.93366 6.46683 10.2003C6.7335 10.467 6.7335 10.9337 6.46683 11.2003L4.5335 13.1337C4.40016 13.267 4.20016 13.3337 4.00016 13.3337Z" fill="#42526E"/>
<path d="M8.66683 3.33366H14.0002C14.4002 3.33366 14.6668 3.60033 14.6668 4.00033C14.6668 4.40033 14.4002 4.66699 14.0002 4.66699H8.66683C8.26683 4.66699 8.00016 4.40033 8.00016 4.00033C8.00016 3.60033 8.26683 3.33366 8.66683 3.33366Z" fill="#42526E"/>
<path d="M8.66683 8.66699H12.0002C12.4002 8.66699 12.6668 8.40032 12.6668 8.00032C12.6668 7.60032 12.4002 7.33366 12.0002 7.33366H8.66683C8.26683 7.33366 8.00016 7.60032 8.00016 8.00032C8.00016 8.40032 8.26683 8.66699 8.66683 8.66699Z" fill="#42526E"/>
<path d="M10.6668 12.667H8.66683C8.26683 12.667 8.00016 12.4003 8.00016 12.0003C8.00016 11.6003 8.26683 11.3337 8.66683 11.3337H10.6668C11.0668 11.3337 11.3335 11.6003 11.3335 12.0003C11.3335 12.4003 11.0668 12.667 10.6668 12.667Z" fill="#42526E"/>
</svg>
