<svg width="16" height="16" viewBox="0 0 16 16" fill="none" xmlns="http://www.w3.org/2000/svg">
<path d="M4.00016 2.66699C3.80016 2.66699 3.60016 2.73366 3.46683 2.86699L1.5335 4.80032C1.26683 5.06699 1.26683 5.53366 1.5335 5.80032C1.80016 6.06699 2.20016 6.06699 2.46683 5.80032L3.3335 4.93366V12.7337C3.3335 13.067 3.60016 13.3337 4.00016 13.3337C4.40016 13.3337 4.66683 13.067 4.66683 12.7337V4.93366L5.5335 5.80032C5.80016 6.06699 6.20016 6.06699 6.46683 5.80032C6.7335 5.53366 6.7335 5.06699 6.46683 4.80032L4.5335 2.86699C4.40016 2.73366 4.20016 2.66699 4.00016 2.66699Z" fill="#42526E"/>
<path d="M8.66683 12.667H14.0002C14.4002 12.667 14.6668 12.4003 14.6668 12.0003C14.6668 11.6003 14.4002 11.3337 14.0002 11.3337H8.66683C8.26683 11.3337 8.00016 11.6003 8.00016 12.0003C8.00016 12.4003 8.26683 12.667 8.66683 12.667Z" fill="#42526E"/>
<path d="M8.66683 7.33366H12.0002C12.4002 7.33366 12.6668 7.60032 12.6668 8.00032C12.6668 8.40032 12.4002 8.66699 12.0002 8.66699H8.66683C8.26683 8.66699 8.00016 8.40032 8.00016 8.00032C8.00016 7.60032 8.26683 7.33366 8.66683 7.33366Z" fill="#42526E"/>
<path d="M10.6668 3.33366H8.66683C8.26683 3.33366 8.00016 3.60032 8.00016 4.00033C8.00016 4.40033 8.26683 4.66699 8.66683 4.66699H10.6668C11.0668 4.66699 11.3335 4.40033 11.3335 4.00033C11.3335 3.60032 11.0668 3.33366 10.6668 3.33366Z" fill="#42526E"/>
</svg>
